<svg width="79" height="16" viewBox="0 0 79 16" fill="none" xmlns="http://www.w3.org/2000/svg">
<path d="M12.2805 10.2637C12.1698 11.7936 11.6034 12.998 10.5813 13.877C9.56567 14.7559 8.22453 15.1953 6.55786 15.1953C4.73494 15.1953 3.2994 14.5833 2.25122 13.3594C1.20955 12.1289 0.688721 10.4427 0.688721 8.30078V7.43164C0.688721 6.06445 0.929606 4.86003 1.41138 3.81836C1.89315 2.77669 2.58 1.97917 3.47192 1.42578C4.37036 0.865885 5.41203 0.585938 6.59692 0.585938C8.23755 0.585938 9.55916 1.02539 10.5618 1.9043C11.5644 2.7832 12.1438 4.01693 12.3 5.60547H9.37036C9.29875 4.6875 9.04159 4.02344 8.59888 3.61328C8.16268 3.19661 7.49536 2.98828 6.59692 2.98828C5.62036 2.98828 4.88794 3.33984 4.39966 4.04297C3.91789 4.73958 3.67049 5.82357 3.65747 7.29492V8.36914C3.65747 9.9056 3.88859 11.0286 4.35083 11.7383C4.81958 12.4479 5.55526 12.8027 6.55786 12.8027C7.46281 12.8027 8.13664 12.5977 8.57935 12.1875C9.02856 11.7708 9.28573 11.1296 9.35083 10.2637H12.2805ZM20.1418 15C20.0116 14.7461 19.9172 14.4303 19.8586 14.0527C19.175 14.8145 18.2864 15.1953 17.1926 15.1953C16.1575 15.1953 15.2981 14.8958 14.6145 14.2969C13.9374 13.6979 13.5989 12.9427 13.5989 12.0312C13.5989 10.9115 14.0123 10.0521 14.8391 9.45312C15.6724 8.85417 16.8736 8.55143 18.4426 8.54492H19.7415V7.93945C19.7415 7.45117 19.6145 7.06055 19.3606 6.76758C19.1132 6.47461 18.7193 6.32812 18.179 6.32812C17.7037 6.32812 17.3293 6.44206 17.0559 6.66992C16.789 6.89779 16.6555 7.21029 16.6555 7.60742H13.8333C13.8333 6.99544 14.0221 6.42904 14.3997 5.9082C14.7773 5.38737 15.3111 4.98047 16.0012 4.6875C16.6913 4.38802 17.4661 4.23828 18.3254 4.23828C19.6275 4.23828 20.6594 4.56706 21.4211 5.22461C22.1894 5.87565 22.5735 6.79362 22.5735 7.97852V12.5586C22.58 13.5612 22.72 14.3197 22.9934 14.834V15H20.1418ZM17.8079 13.0371C18.2245 13.0371 18.6086 12.946 18.9602 12.7637C19.3118 12.5749 19.5722 12.3242 19.7415 12.0117V10.1953H18.6868C17.274 10.1953 16.5221 10.6836 16.4309 11.6602L16.4211 11.8262C16.4211 12.1777 16.5448 12.4674 16.7922 12.6953C17.0396 12.9232 17.3782 13.0371 17.8079 13.0371ZM28.1204 1.83594V4.43359H29.927V6.50391H28.1204V11.7773C28.1204 12.168 28.1952 12.4479 28.345 12.6172C28.4947 12.7865 28.7812 12.8711 29.2043 12.8711C29.5168 12.8711 29.7935 12.8483 30.0344 12.8027V14.9414C29.481 15.1107 28.9114 15.1953 28.3254 15.1953C26.3463 15.1953 25.3372 14.196 25.2981 12.1973V6.50391H23.7551V4.43359H25.2981V1.83594H28.1204ZM31.1086 11.1719C31.1086 10.5143 31.2909 9.9056 31.6555 9.3457C32.0266 8.78581 32.7037 8.16406 33.6868 7.48047C33.2636 6.91406 32.9316 6.38346 32.6907 5.88867C32.4498 5.38737 32.3293 4.86654 32.3293 4.32617C32.3293 3.2194 32.6777 2.32096 33.3743 1.63086C34.0774 0.934245 35.0214 0.585938 36.2063 0.585938C37.2675 0.585938 38.1366 0.901693 38.8137 1.5332C39.4973 2.16471 39.8391 2.95247 39.8391 3.89648C39.8391 5.0293 39.2662 6.02865 38.1204 6.89453L37.0266 7.68555L39.4778 10.5371C39.8619 9.7819 40.054 8.94857 40.054 8.03711H42.4563C42.4563 9.88607 42.0299 11.3835 41.177 12.5293L43.3059 15H40.1028L39.3704 14.1602C38.3222 14.8503 37.1178 15.1953 35.7571 15.1953C34.3508 15.1953 33.2245 14.8275 32.3782 14.0918C31.5318 13.3496 31.1086 12.3763 31.1086 11.1719ZM35.8938 12.9297C36.5709 12.9297 37.2122 12.7409 37.8176 12.3633L35.0149 9.12109L34.8098 9.26758C34.2304 9.76237 33.9407 10.3451 33.9407 11.0156C33.9407 11.582 34.1197 12.0443 34.4778 12.4023C34.8424 12.7539 35.3144 12.9297 35.8938 12.9297ZM34.8586 4.28711C34.8586 4.77539 35.1451 5.39062 35.718 6.13281L36.47 5.63477C36.8541 5.38737 37.1178 5.14648 37.261 4.91211C37.4107 4.67773 37.4856 4.39779 37.4856 4.07227C37.4856 3.74674 37.3652 3.46354 37.1243 3.22266C36.8834 2.98177 36.5741 2.86133 36.1965 2.86133C35.7929 2.86133 35.4674 2.99154 35.22 3.25195C34.9791 3.51237 34.8586 3.85742 34.8586 4.28711ZM44.8098 15V0.78125H49.1848C50.4348 0.78125 51.5514 1.06445 52.5344 1.63086C53.524 2.19076 54.2955 2.99154 54.8489 4.0332C55.4023 5.06836 55.679 6.24674 55.679 7.56836V8.22266C55.679 9.54427 55.4055 10.7194 54.8586 11.748C54.3183 12.7767 53.5533 13.5742 52.5637 14.1406C51.5741 14.707 50.4576 14.9935 49.2141 15H44.8098ZM47.7395 3.1543V12.6465H49.1555C50.3014 12.6465 51.177 12.2721 51.7825 11.5234C52.3879 10.7747 52.6972 9.70378 52.7102 8.31055V7.55859C52.7102 6.11328 52.4107 5.01953 51.8118 4.27734C51.2128 3.52865 50.3372 3.1543 49.1848 3.1543H47.7395ZM57.1926 9.61914C57.1926 8.57096 57.3944 7.63672 57.7981 6.81641C58.2017 5.99609 58.7812 5.36133 59.5364 4.91211C60.2981 4.46289 61.1803 4.23828 62.1829 4.23828C63.6086 4.23828 64.7708 4.67448 65.6692 5.54688C66.5741 6.41927 67.0787 7.60417 67.1829 9.10156L67.2024 9.82422C67.2024 11.4453 66.7499 12.7474 65.845 13.7305C64.94 14.707 63.7258 15.1953 62.2024 15.1953C60.679 15.1953 59.4615 14.707 58.55 13.7305C57.6451 12.7539 57.1926 11.4258 57.1926 9.74609V9.61914ZM60.0149 9.82422C60.0149 10.8268 60.2037 11.5951 60.5813 12.1289C60.9589 12.6562 61.4993 12.9199 62.2024 12.9199C62.886 12.9199 63.4198 12.6595 63.804 12.1387C64.1881 11.6113 64.3801 10.7715 64.3801 9.61914C64.3801 8.63607 64.1881 7.87435 63.804 7.33398C63.4198 6.79362 62.8795 6.52344 62.1829 6.52344C61.4928 6.52344 60.9589 6.79362 60.5813 7.33398C60.2037 7.86784 60.0149 8.69792 60.0149 9.82422ZM68.5305 9.63867C68.5305 8.01758 68.9146 6.71224 69.6829 5.72266C70.4576 4.73307 71.4993 4.23828 72.8079 4.23828C73.9667 4.23828 74.8684 4.63542 75.5129 5.42969L75.6301 4.43359H78.1887V14.6484C78.1887 15.5729 77.9771 16.377 77.554 17.0605C77.1373 17.7441 76.5481 18.265 75.7864 18.623C75.0247 18.9811 74.1327 19.1602 73.1106 19.1602C72.3359 19.1602 71.5806 19.0039 70.845 18.6914C70.1093 18.3854 69.5527 17.9883 69.175 17.5L70.425 15.7812C71.1282 16.569 71.981 16.9629 72.9836 16.9629C73.7323 16.9629 74.315 16.7611 74.7317 16.3574C75.1484 15.9603 75.3567 15.3939 75.3567 14.6582V14.0918C74.7056 14.8275 73.8495 15.1953 72.7883 15.1953C71.5188 15.1953 70.4902 14.7005 69.7024 13.7109C68.9211 12.7148 68.5305 11.3965 68.5305 9.75586V9.63867ZM71.3528 9.84375C71.3528 10.8008 71.5448 11.5527 71.929 12.0996C72.3131 12.64 72.8404 12.9102 73.511 12.9102C74.3704 12.9102 74.9856 12.5879 75.3567 11.9434V7.5C74.9791 6.85547 74.3704 6.5332 73.5305 6.5332C72.8534 6.5332 72.3196 6.8099 71.929 7.36328C71.5448 7.91667 71.3528 8.74349 71.3528 9.84375Z" fill="#F0A83E"/>
</svg>
