<svg width="46" height="16" viewBox="0 0 46 16" fill="none" xmlns="http://www.w3.org/2000/svg">
<path d="M8.82422 9.18945H3.19922V15H0.269531V0.78125H9.52734V3.1543H3.19922V6.82617H8.82422V9.18945ZM16.7246 7.08008C16.3405 7.02799 16.002 7.00195 15.709 7.00195C14.6413 7.00195 13.9414 7.36328 13.6094 8.08594V15H10.7871V4.43359H13.4531L13.5312 5.69336C14.0977 4.72331 14.8822 4.23828 15.8848 4.23828C16.1973 4.23828 16.4902 4.2806 16.7637 4.36523L16.7246 7.08008ZM17.3008 9.61914C17.3008 8.57096 17.5026 7.63672 17.9062 6.81641C18.3099 5.99609 18.8893 5.36133 19.6445 4.91211C20.4062 4.46289 21.2884 4.23828 22.291 4.23828C23.7168 4.23828 24.8789 4.67448 25.7773 5.54688C26.6823 6.41927 27.1868 7.60417 27.291 9.10156L27.3105 9.82422C27.3105 11.4453 26.8581 12.7474 25.9531 13.7305C25.0482 14.707 23.834 15.1953 22.3105 15.1953C20.7871 15.1953 19.5697 14.707 18.6582 13.7305C17.7533 12.7539 17.3008 11.4258 17.3008 9.74609V9.61914ZM20.123 9.82422C20.123 10.8268 20.3118 11.5951 20.6895 12.1289C21.0671 12.6562 21.6074 12.9199 22.3105 12.9199C22.9941 12.9199 23.528 12.6595 23.9121 12.1387C24.2962 11.6113 24.4883 10.7715 24.4883 9.61914C24.4883 8.63607 24.2962 7.87435 23.9121 7.33398C23.528 6.79362 22.9876 6.52344 22.291 6.52344C21.6009 6.52344 21.0671 6.79362 20.6895 7.33398C20.3118 7.86784 20.123 8.69792 20.123 9.82422ZM31.6465 4.43359L31.7344 5.6543C32.4896 4.71029 33.502 4.23828 34.7715 4.23828C35.8913 4.23828 36.7246 4.56706 37.2715 5.22461C37.8184 5.88216 38.0983 6.86523 38.1113 8.17383V15H35.2891V8.24219C35.2891 7.64323 35.1589 7.21029 34.8984 6.94336C34.638 6.66992 34.2051 6.5332 33.5996 6.5332C32.8053 6.5332 32.2096 6.87174 31.8125 7.54883V15H28.9902V4.43359H31.6465ZM43.6387 1.83594V4.43359H45.4453V6.50391H43.6387V11.7773C43.6387 12.168 43.7135 12.4479 43.8633 12.6172C44.013 12.7865 44.2995 12.8711 44.7227 12.8711C45.0352 12.8711 45.3118 12.8483 45.5527 12.8027V14.9414C44.9993 15.1107 44.4297 15.1953 43.8438 15.1953C41.8646 15.1953 40.8555 14.196 40.8164 12.1973V6.50391H39.2734V4.43359H40.8164V1.83594H43.6387Z" fill="#3C2313"/>
</svg>
